<svg viewBox="0 0 15 15" fill="none" xmlns="http://www.w3.org/2000/svg">
<path d="M1.5 3.50004L3.5 0.833374H11.5L13.5 3.50004M1.5 3.50004V12.8334C1.5 13.187 1.64048 13.5261 1.89052 13.7762C2.14057 14.0262 2.47971 14.1667 2.83333 14.1667H12.1667C12.5203 14.1667 12.8594 14.0262 13.1095 13.7762C13.3595 13.5261 13.5 13.187 13.5 12.8334V3.50004M1.5 3.50004H13.5M10.1667 6.16671C10.1667 6.87395 9.88571 7.55223 9.38562 8.05233C8.88552 8.55242 8.20724 8.83337 7.5 8.83337C6.79276 8.83337 6.11448 8.55242 5.61438 8.05233C5.11428 7.55223 4.83333 6.87395 4.83333 6.16671" stroke="#F5F5F5" stroke-width="1.6" stroke-linecap="round" stroke-linejoin="round"/>
</svg>
