<svg width="25" height="24" viewBox="0 0 25 24" fill="none" xmlns="http://www.w3.org/2000/svg">
<path d="M7.73302 24C7.14049 24 6.63832 23.7995 6.22652 23.3984C5.81493 22.9973 5.60913 22.5102 5.60913 21.937C5.60913 21.3639 5.81643 20.8784 6.23104 20.4804C6.64564 20.0822 7.1492 19.8831 7.74173 19.8831C8.33427 19.8831 8.83772 20.0836 9.25211 20.4847C9.66671 20.8858 9.87401 21.3728 9.87401 21.9457C9.87401 22.5189 9.66585 23.0045 9.24953 23.4027C8.83321 23.8009 8.3277 24 7.73302 24ZM20.2449 24C19.6524 24 19.1503 23.7995 18.7388 23.3984C18.3269 22.9973 18.121 22.5102 18.121 21.937C18.121 21.3639 18.3283 20.8784 18.7429 20.4804C19.1575 20.0822 19.6611 19.8831 20.2536 19.8831C20.8462 19.8831 21.3497 20.0836 21.7643 20.4847C22.1787 20.8858 22.3859 21.3728 22.3859 21.9457C22.3859 22.5189 22.1779 23.0045 21.7618 23.4027C21.3454 23.8009 20.8398 24 20.2449 24ZM5.98802 4.03731L9.47866 11.0592H18.4015C18.4762 11.0592 18.5438 11.0412 18.6045 11.0054C18.6652 10.9695 18.7134 10.9197 18.7491 10.8558L22.4524 4.37217C22.5021 4.28429 22.5062 4.20645 22.4647 4.13867C22.4234 4.0711 22.353 4.03731 22.2536 4.03731H5.98802ZM5.18216 2.47462H23.0937C23.6214 2.47462 24.0204 2.6932 24.2907 3.13035C24.5611 3.56751 24.5695 4.01171 24.3158 4.46296L20.292 11.4854C20.0782 11.8343 19.8011 12.1109 19.4607 12.3153C19.1203 12.5197 18.751 12.6218 18.3528 12.6218H8.84966L7.16308 15.6145C7.10241 15.7102 7.10176 15.8139 7.16114 15.9254C7.22052 16.0371 7.31229 16.093 7.43643 16.093H22.3859V17.6553H7.58037C6.7516 17.6553 6.14487 17.356 5.76017 16.7574C5.37548 16.1588 5.37257 15.5227 5.75146 14.8493L7.75077 11.3558L2.93145 1.56269H0.5V0H3.96902L5.18216 2.47462Z" fill="#181818"/>
</svg>
