<svg viewBox="0 0 25 20" xmlns="http://www.w3.org/2000/svg">
    <path d="M21.1774 2.09122C19.5349 1.33715 17.8009 0.802189 16.0197 0.5C15.776 0.936922 15.5554 1.38646 15.359 1.84672C13.4617 1.56003 11.5323 1.56003 9.63503 1.84672C9.43851 1.3865 9.21798 0.936974 8.97434 0.5C7.19203 0.804741 5.45689 1.34097 3.81271 2.09516C0.548589 6.93784 -0.336262 11.6602 0.106163 16.3156C2.01771 17.7318 4.15728 18.8089 6.43187 19.5C6.94404 18.8092 7.39724 18.0764 7.78667 17.3094C7.047 17.0323 6.33309 16.6906 5.6532 16.288C5.83213 16.1578 6.00714 16.0238 6.17624 15.8936C8.15457 16.8266 10.3138 17.3103 12.5 17.3103C14.6862 17.3103 16.8454 16.8266 18.8237 15.8936C18.9948 16.0336 19.1698 16.1677 19.3468 16.288C18.6656 16.6912 17.9503 17.0336 17.2094 17.3113C17.5983 18.0781 18.0515 18.8102 18.5642 19.5C20.8407 18.8117 22.9819 17.7351 24.8938 16.3176C25.4129 10.9188 24.007 6.23983 21.1774 2.09122ZM8.34708 13.4526C7.11419 13.4526 6.09562 12.3306 6.09562 10.9504C6.09562 9.57015 7.07879 8.43836 8.34315 8.43836C9.6075 8.43836 10.6182 9.57015 10.5966 10.9504C10.5749 12.3306 9.60357 13.4526 8.34708 13.4526ZM16.6529 13.4526C15.418 13.4526 14.4034 12.3306 14.4034 10.9504C14.4034 9.57015 15.3866 8.43836 16.6529 8.43836C17.9192 8.43836 18.922 9.57015 18.9004 10.9504C18.8788 12.3306 17.9094 13.4526 16.6529 13.4526Z"/>
</svg>
