<svg width="25" height="25" viewBox="0 0 25 25" fill="none" xmlns="http://www.w3.org/2000/svg">
<path d="M4.42896 19.1724C5.62791 18.327 6.85454 17.6678 8.10885 17.195C9.36317 16.7221 10.7158 16.4857 12.1667 16.4857C13.6177 16.4857 14.9724 16.7221 16.231 17.195C17.4897 17.6678 18.7185 18.327 19.9175 19.1724C20.7914 18.1754 21.4536 17.0934 21.9041 15.9264C22.3544 14.7593 22.5796 13.506 22.5796 12.1667C22.5796 9.24687 21.5741 6.78139 19.5632 4.77024C17.552 2.75929 15.0865 1.75381 12.1667 1.75381C9.24696 1.75381 6.78148 2.75929 4.77033 4.77024C2.75938 6.78139 1.75391 9.24687 1.75391 12.1667C1.75391 13.506 1.98127 14.7593 2.43601 15.9264C2.89075 17.0934 3.55506 18.1754 4.42896 19.1724ZM12.1623 12.9602C11.0209 12.9602 10.0598 12.5684 9.27917 11.7849C8.49875 11.0013 8.10854 10.0388 8.10854 8.89729C8.10854 7.75602 8.50033 6.79508 9.28391 6.01445C10.0673 5.23381 11.0297 4.8435 12.1712 4.8435C13.3126 4.8435 14.2737 5.23529 15.0543 6.01887C15.8347 6.80245 16.225 7.76497 16.225 8.90645C16.225 10.0477 15.8332 11.0087 15.0496 11.7893C14.2662 12.5699 13.3038 12.9602 12.1623 12.9602ZM12.1765 24.1667C10.5123 24.1667 8.95096 23.8533 7.49243 23.2266C6.03412 22.5998 4.76201 21.7429 3.67612 20.6557C2.59001 19.5686 1.73359 18.298 1.10685 16.8441C0.480117 15.3902 0.166748 13.8306 0.166748 12.1651C0.166748 10.4998 0.480117 8.94066 1.10685 7.4876C1.73359 6.03476 2.59054 4.76476 3.6777 3.6776C4.76485 2.59045 6.03538 1.7335 7.48927 1.10676C8.94317 0.480026 10.5029 0.166656 12.1683 0.166656C13.8336 0.166656 15.3927 0.480026 16.8458 1.10676C18.2986 1.7335 19.5686 2.59045 20.6558 3.6776C21.743 4.76476 22.5999 6.03508 23.2266 7.48855C23.8534 8.94181 24.1667 10.4979 24.1667 12.1569C24.1667 13.8211 23.8534 15.3824 23.2266 16.841C22.5999 18.2993 21.743 19.5714 20.6558 20.6573C19.5686 21.7434 18.2983 22.5998 16.8449 23.2266C15.3916 23.8533 13.8355 24.1667 12.1765 24.1667ZM12.1667 22.5795C13.3295 22.5795 14.4678 22.394 15.5817 22.0231C16.6956 21.6519 17.7257 21.0784 18.672 20.3027C17.7257 19.5966 16.7042 19.0483 15.6076 18.658C14.511 18.2677 13.364 18.0726 12.1667 18.0726C10.9695 18.0726 9.82054 18.2657 8.71991 18.652C7.61906 19.0383 6.60233 19.5886 5.6697 20.3027C6.61054 21.0784 7.63791 21.6519 8.7518 22.0231C9.86569 22.394 11.004 22.5795 12.1667 22.5795ZM12.168 11.3731C12.8809 11.3731 13.4707 11.1393 13.9377 10.6717C14.4046 10.2039 14.6381 9.6136 14.6381 8.90076C14.6381 8.18792 14.4042 7.59802 13.9364 7.13108C13.4689 6.66413 12.8785 6.43066 12.1655 6.43066C11.4526 6.43066 10.8627 6.66445 10.3958 7.13203C9.92885 7.59981 9.69538 8.19013 9.69538 8.90297C9.69538 9.61582 9.92927 10.2057 10.3971 10.6727C10.8646 11.1396 11.455 11.3731 12.168 11.3731Z" fill="#181818"/>
</svg>
