<svg xmlns="http://www.w3.org/2000/svg" version="1.1" xmlns:xlink="http://www.w3.org/1999/xlink" xmlns:svgjs="http://svgjs.dev/svgjs" width="1000" height="1000"><g clip-path="url(#SvgjsClipPath1073)"><rect width="1000" height="1000" fill="#ffffff"></rect><g transform="matrix(4,0,0,4,0,0)"><svg xmlns="http://www.w3.org/2000/svg" version="1.1" xmlns:xlink="http://www.w3.org/1999/xlink" xmlns:svgjs="http://svgjs.dev/svgjs" width="250" height="250"><svg version="1.2" xmlns="http://www.w3.org/2000/svg" viewBox="0 0 250 250" width="250" height="250">
	<title>logo_noir</title>
	<defs>
		<clipPath clipPathUnits="userSpaceOnUse" id="cp1">
			<path d="m7 71h234v62h-234z"></path>
		</clipPath>
		<clipPath clipPathUnits="userSpaceOnUse" id="cp2">
			<path d="m8.55 67.83l233.93 5.8-1.49 59.98-233.92-5.8z"></path>
		</clipPath>
		<clipPath clipPathUnits="userSpaceOnUse" id="cp3">
			<path d="m8.55 67.83l233.93 5.8-1.49 59.98-233.92-5.8z"></path>
		</clipPath>
		<clipPath clipPathUnits="userSpaceOnUse" id="cp4">
			<path d="m114 42.84h23v27h-23z"></path>
		</clipPath>
		<clipPath clipPathUnits="userSpaceOnUse" id="cp5">
			<path d=""></path>
		</clipPath>
		<clipPath clipPathUnits="userSpaceOnUse" id="cp6">
			<path d="m63 177h123v3h-123z"></path>
		</clipPath>
		<clipPath clipPathUnits="userSpaceOnUse" id="cp7">
			<path d="m64 177.6h121.64v1.68h-121.64z"></path>
		</clipPath>
	<clipPath id="SvgjsClipPath1073"><rect width="1000" height="1000" x="0" y="0" rx="500" ry="500"></rect></clipPath></defs>
	<style>
		.s0 { fill: #ffffff } 
		.s1 { fill: #000000 } 
		.s2 { fill: none;stroke: #000000;stroke-width: 1.5 } 
	</style>
	<path fill-rule="evenodd" class="s0" d="m-100.5-103.5h450v450h-450z"></path>
	<path fill-rule="evenodd" class="s0" d="m-100.5-103.5h450v450h-450z"></path>
	<g>
		<g>
			<g>
				<path class="s1" d="m23.3 128.8l-16.1 2.8 0.1 0.4c3.9 0.8 5.1 1.8 5.5 3.9l5.1 28.6c0.3 1.9-0.5 3.2-3.9 5.3l0.1 0.4 16.1-2.8c13.2-2.4 21-10.2 18.6-23.3-2.3-13.1-12.3-17.7-25.5-15.3zm1 37.2l-6-34 3.3-0.6c11.9-2.1 18.7 3.1 20.6 13.9 1.9 10.8-2.7 18-14.5 20.1z"></path>
			</g>
		</g>
	</g>
	<g>
		<g>
			<g>
				<path class="s1" d="m70.3 132.8c-3 0.3-6.1 2.1-7.2 6.7l-0.6-5.3-10.3 1.2 0.1 0.4c3.6 0.7 4.6 1.6 4.9 3.6l2.1 18.6c0.2 1.9-0.6 2.9-3.9 4.8v0.5l16.1-1.9-0.1-0.4c-4.5-1-6.1-1.7-6.3-3.9l-1.5-12.9c0.4-6.3 2.6-8 4.9-8.3 2.7-0.3 4.3 2.3 3.6 9.7h0.4l3.6-11.7c-1.4-0.9-3.5-1.4-5.8-1.1z"></path>
			</g>
		</g>
	</g>
	<g>
		<g>
			<g>
				<path class="s1" d="m104.1 147.3c-1.6 5.7-5.3 8.8-10.2 9.1-6.5 0.4-10.1-4.5-10.6-12.1l-0.1-0.9 20-1.3c-1.8-8.5-7.4-11.4-12.7-11-8 0.5-13.3 7.6-12.7 16.6 0.5 8.2 6 13.2 13.8 12.7 7.9-0.5 12.3-5.1 12.9-13.1zm-13.5-14.1c3.9-0.2 5.8 2.8 6.2 7.5l-13.5 0.8c0.5-4.9 3.2-8 7.3-8.3z"></path>
			</g>
		</g>
	</g>
	<g>
		<g>
			<g>
				<path class="s1" d="m129.5 145.7c-1.1 7.7-4 11.1-9.7 11.1l-6.3 0.1 15.6-26.3-23.7 0.3 0.2 13h0.3c1.2-8.1 4-11.2 9.6-11.3l6-0.1-15.6 26.4 24.2-0.3-0.2-12.9z"></path>
			</g>
		</g>
	</g>
	<g>
		<g>
			<g>
				<path class="s1" d="m156.3 146.6c-1.6 7.6-4.6 10.8-10.3 10.6l-6.3-0.2 16.9-25.6-23.7-0.8-0.5 13h0.4c1.5-8 4.5-11 10.1-10.8l6 0.2-17 25.6 24.3 0.9 0.5-12.9z"></path>
			</g>
		</g>
	</g>
	<g>
		<g>
			<g>
				<path class="s1" d="m168.3 128.8c2.1 0.1 3.9-1.4 4.1-3.5 0.1-2-1.4-3.9-3.5-4-2-0.2-3.9 1.4-4 3.4-0.2 2.1 1.4 3.9 3.4 4.1zm5.3 32.1v-0.4c-3.4-1.9-4.3-3-4.1-4.9l1.8-23-10.3-0.8v0.4c3.4 1.9 4.2 2.9 4 5.1l-1.4 17.9c-0.1 1.9-1.1 2.8-4.7 4.1l-0.1 0.5z"></path>
			</g>
		</g>
	</g>
	<g>
		<g>
			<g>
				<path class="s1" d="m207.8 146.7c1-8.1-3.2-11-8-11.7-4.3-0.5-8.2 1-11 5.5l0.8-6.1-10.2-1.3-0.1 0.4c3.3 2.1 4.1 3 3.8 5.4l-2.3 17.8c-0.2 1.9-1.2 2.6-4.9 3.8l-0.1 0.4 14.9 1.9 0.1-0.4c-3.5-2.1-4.4-3-4.2-4.9l1.8-13.4c2.4-4.9 5.7-6.9 9.2-6.5 3.8 0.5 5 3.1 4.4 8.4l-1.7 13.2c-0.3 1.9-1.3 2.6-5.2 3.8l-0.1 0.4 14.9 1.9v-0.4c-3.3-2.2-4.1-3-3.8-5z"></path>
			</g>
		</g>
	</g>
	<g>
		<g>
			<g>
				<path class="s1" d="m220.7 162.8c-2.3-0.4-2.8-1.1-2.7-1.9 0.3-1.2 2.2-1.9 5.2-1.8l0.8 0.2c6.4 1.2 12.3-1.4 13.5-7.6 0.7-3.7-0.8-6.9-3.4-9.2 2.3 0.7 4.3 1.2 6.2 1.6l3.2-7.7-0.4-0.1c-2.9 3.6-5.8 5.6-14 3.6-0.3 0-0.5-0.1-0.8-0.2h-0.1l-0.4-0.1c-6.5-1.2-12.4 1.8-13.5 7.6-0.9 4.7 1.4 8.5 5.4 10.6-3.5 0.6-5.3 2.1-5.7 4.2-0.5 2.5 1.3 4.2 3.5 5.1-6.3 0.1-9.4 1.4-9.8 4-0.8 3.9 5.1 5.8 10.9 6.9 9.4 1.8 18.1-0.6 19.3-6.7 0.7-3.9-1.8-5.5-6.7-6.5zm6.7-21.3c3.4 0.6 5.4 4 4.5 9.1-1.1 5.3-4.2 7.5-7.5 6.8-3.4-0.6-5.4-3.7-4.4-9.1 0.9-5 4.1-7.5 7.4-6.8zm-7.9 34.6c-4.3-0.8-6.9-2.4-6.5-4.5 0.4-2.2 3.5-3.5 9.8-3.3l7.4 1.4c2.5 0.5 3.7 1.1 3.4 2.8-0.7 3.3-7.1 4.9-14.1 3.6z"></path>
			</g>
		</g>
	</g>
	<g id="Clip-Path" clip-path="url(#cp1)">
		<g>
			<g id="Clip-Path" clip-path="url(#cp2)">
				<g>
					<g id="Clip-Path" clip-path="url(#cp3)">
						<g>
							<path class="s1" d="m200 104.1l4.6 9.3c0 0-5.5-4.7-7.2-7-1.2-1.9-2.9-4-4.9-5-0.6 0.2-1.1 0.4-1.3 0.5-7.1 4.9-9 5.2-15.2-0.6-2-1.8-3.1-4.8-7.8-7.4-0.4-0.2-1.6-0.7-2.9-1.1 0.8 1.4 2 2.9 3.3 4.1-2.2-0.6-4-1.7-5.5-3.1-0.6-0.6-1.1-0.9-1.4-1.2-0.6 0.6-1.2 1.6-1.8 2.1-0.4 0.3-0.7 0.7-1 1.1-0.8 0.5-1.7 1.2-2.4 1.6-1.4 1-9.3-0.1-8.4 1.3 1 1.5 2.8 5.5 5.5 8.6 0.3 0.3 3.3 3.7 9 7.6-4.8-1.1-8.3-2.6-11.1-5.5-2.3-2.3-4.2-5.1-6.1-7.7-4.7-6.1-9.2-13.6-15.3-18.3-1 1.9 3.6 11.2 2.6 13.1-1.9-2-10-12.4-11.1-14.9-3.5 5.7-8.7 11.8-13.6 16.3-1.7 1.7-9.4 15-11.4 16.5-0.7-0.8 4.7-13.3 4-14.1-1.9-2-3.1-1.9-5-3.9-3.7-5.7-7.7-0.3-9.5 1.4-19.7 19.3-16 17.5-18.7 23.1-0.4 0.7-1.5-0.2-1.5-1 0.1-4.6-1-9.4-3.1-13.5-2-1.3-2.5-4.9-4.4-5.9-4.3 3.2-11.5 10.2-10.2 6.9 0.7-1.7 2-3.5 3.3-5-2.2 1.3-4.4 3-6 4.1-1.4 1.1-2.7 2.3-4 3.5-8.1 8.1-19.1 12.5-29.8 16.6-1.4 0.5-3.1 0.9-4.1-0.1 3.9-0.5 8-2.6 13.5-5.3 6.4-3.1 14-11.6 19.8-15.6 4.5-3.1 8.6-6.9 12.4-11 2.9-3.1 7.4 0.6 10 2.6 2.6 2.1 3.9 7.5 5.7 10.4 5.8-4.5 14.1-10.9 20-15.4 0.9-0.7 1.8-1.4 2.9-1.6 1.2-0.1 2.3 0.3 3.4 0.8 3 1.3 6 2.6 9 3.9 8.1-6.5 14.4-14.6 19.6-23.6 3.7-0.9 5.8 2.5 7.5 5.8 3.8 7.4 11.2 12.2 18.1 15.8 0.7 0.4 1.3 1.1 2.1 1.2 1.6 0.2 3.1 0.3 4.4-0.7 2.1-1.5 3.6-3.9 6.6-5.7 2.4 0 8.4 4.3 11.3 6.9 6.3 5.4 6.1 8.1 13.9 4 0.7-0.3 1.2-0.7 1.8-1.2 1.7-1.5 4.8-3.7 6.9-3.3 1.3 0.3 6.1 5.8 7.1 6.7 5.6 5.1 7.4 5.5 12.3 11.4 11.1 13.4 14.2 13.5 24.8 20.2-14.9-2.9-26.1-18.6-38.8-26.9-0.2-0.1-0.9-0.9-1.9-1.8z"></path>
						</g>
					</g>
				</g>
			</g>
		</g>
	</g>
	<g id="Clip-Path" clip-path="url(#cp4)">
		<g>
			<path class="s1" d="m126.7 73.4c-0.7 0-1.3-0.6-1.3-1.3v-5.1c0-2.2 0.8-4.3 2.3-5.8 1.1-1.2 2.5-2.8 3.5-3.8 1.7-1.8 2.4-3.7 2.3-5.6-0.3-3.5-3.3-6.3-6.8-6.3-0.1 0-0.1 0-0.1 0-2.2 0-4.1 1-5.4 2.8-0.1 0.2-0.3 0.4-0.4 0.7-0.9 1.4-2.3 3.6-5.2 4.1-0.7 0.1-1.4-0.4-1.5-1.1-0.2-0.6 0.4-1.4 1-1.5 1.8-0.3 2.6-1.6 3.4-2.9 0.3-0.4 0.4-0.6 0.6-0.9 1.7-2.4 4.5-3.8 7.5-3.9 4.9 0 9.1 3.9 9.5 8.8 0.2 2.6-0.8 5.2-2.9 7.6-1 1.1-2.4 2.5-3.5 3.7-1.1 1.1-1.7 2.6-1.7 4.1v5.1c0 0.7-0.5 1.3-1.3 1.3z"></path>
		</g>
	</g>
	<g id="Clip-Path" clip-path="url(#cp5)">
		<g>
			<g>
				<g id="Clip-Path" clip-path="url(#cp6)">
					<g>
						<g id="Clip-Path" clip-path="url(#cp7)">
							<g>
								<path class="s2" d="m64.8 178.5h120"></path>
							</g>
						</g>
					</g>
				</g>
			</g>
		</g>
	</g>
</svg></svg></g></g></svg>